<svg xmlns="http://www.w3.org/2000/svg" xmlns:xlink="http://www.w3.org/1999/xlink" width="24" height="24" viewBox="0 0 24 24"><g fill="none"><g clip-path="url(#svgID0)"><path fill="#CFA920" d="M12 3a9 9 0 100 18 9 9 0 000-18M1 12C1 5.925 5.925 1 12 1s11 4.925 11 11-4.925 11-11 11S1 18.075 1 12"/><path fill="#CFA920" d="M12.707 7.293a1 1 0 10-1.414 1.414L13.586 11H8a1 1 0 100 2h5.586l-2.293 2.293a1 1 0 001.414 1.414l4-4a1 1 0 000-1.414z"/><path stroke="#CBA786" stroke-linecap="round" stroke-linejoin="round" d="M12 3a9 9 0 100 18 9 9 0 000-18M1 12C1 5.925 5.925 1 12 1s11 4.925 11 11-4.925 11-11 11S1 18.075 1 12"/><path stroke="#CBA786" stroke-linecap="round" stroke-linejoin="round" d="M12.707 7.293a1 1 0 10-1.414 1.414L13.586 11H8a1 1 0 100 2h5.586l-2.293 2.293a1 1 0 001.414 1.414l4-4a1 1 0 000-1.414z"/></g><defs><clipPath id="svgID0"><path fill="#fff" d="M0 0h24v24H0z"/></clipPath></defs></g></svg>